# xmcd
#
# Track frame offsets: 
#        150
#        15237
#        37669
#        53008
#        66222
#        86553
#        98193
#        109470
#        124323
#        142848
#        159040
#        174634
#        192819
#        206224
#
# Disc length: 2980 seconds
#
# Revision: 9
# Processed by: cddbd v1.5.1PL2 Copyright (c) Steve Scherf et al.
# Submitted via: ExactAudioCopy v0.95b3
#
DISCID=b10ba20e
DTITLE=Eric Clapton - Me and Mr. Johnson
DYEAR=2004
DGENRE=Blues
TTITLE0=When You Got a Good Friend
TTITLE1=Little Queen of Spades
TTITLE2=They're Red Hot
TTITLE3=Me and the Devil Blues
TTITLE4=Traveling Riverside Blues
TTITLE5=Last Fair Deal Gone Down
TTITLE6=Stop Breakin' Down Blues
TTITLE7=Milkcow's Calf Blues
TTITLE8=Kind Hearted Woman Blues
TTITLE9=Come on in My Kitchen
TTITLE10=If I Had Possession Over Judgement Day
TTITLE11=Love in Vain
TTITLE12=32-20 Blues
TTITLE13=Hell Hound on My Trail
EXTD=by picca_one YEAR: 2004
EXTT0=
EXTT1=
EXTT2=
EXTT3=
EXTT4=
EXTT5=
EXTT6=
EXTT7=
EXTT8=
EXTT9=
EXTT10=
EXTT11=
EXTT12=
EXTT13=
PLAYORDER=
